<?xml version="1.0" standalone="no"?><!DOCTYPE svg PUBLIC "-//W3C//DTD SVG 1.1//EN" "http://www.w3.org/Graphics/SVG/1.1/DTD/svg11.dtd"><svg t="1754970621926" class="icon" viewBox="0 0 1024 1024" version="1.1" xmlns="http://www.w3.org/2000/svg" p-id="16836" xmlns:xlink="http://www.w3.org/1999/xlink" width="200" height="200"><path d="M448 132.96a128 128 0 0 1 128 0l232.256 134.08a128 128 0 0 1 64 110.848v268.224a128 128 0 0 1-64 110.848L576 891.04a128 128 0 0 1-128 0l-232.256-134.08a128 128 0 0 1-64-110.848v-268.224a128 128 0 0 1 64-110.848L448 132.96z" fill="#FF6A4D" p-id="16837"></path><path d="M345.088 373.664l3.968-0.192c9.408-0.768 17.024 1.76 22.24 7.232l2.112 2.528 1.504 2.4 4.16-2.176c9.184-4.48 18.88-7.424 29.184-8.896l7.808-0.832 8-0.256c65.952 2.08 100.416 41.472 101.44 115.424-3.2 63.552-37.728 98.048-101.696 101.248-10.656 0-20.704-1.312-30.176-4.064l-6.912-2.272-6.464-2.72v60.032c0 15.68-8.032 25.6-22.24 28.288l-3.968 0.576-4.352 0.16c-16.96 0-27.36-9.024-28.832-24.96l-0.192-4.064v-240.096c0-16.224 9.152-25.984 24.416-27.392v0.032z m360.544-0.32l3.808 0.16h0.384c22.72 3.616 31.584 18.08 24.16 38.784l-1.696 4.288-115.584 235.616-0.576 0.992-0.672 0.896-1.376 1.184-1.984 2.944a28.576 28.576 0 0 1-15.264 10.912l-3.68 0.768-4 0.224c-24.64-2.304-35.104-16.32-27.488-37.6l1.632-4.096 36.544-71.744-75.264-141.888c-8.992-20.288-2.752-34.912 16.864-39.936l4.096-0.832 4.416-0.576c9.792 0 17.92 4.8 24.096 13.696l2.56 4.064 54.464 102.528 47.776-99.392c5.856-11.712 13.696-18.976 23.168-20.64l3.648-0.32v-0.032z m-283.104 50.848l-4.48 0.416c-24.704 3.52-37.6 22.464-39.264 58.976 1.792 35.616 16.576 53.28 44.8 55.84 26.816-0.864 41.12-18.4 43.808-55.04-1.728-38.272-14.976-57.248-40.64-59.904l-4.224-0.32z" fill="#FEFFB9" p-id="16838"></path></svg>